# xmcd CD database file
#
# Track frame offsets:
#	183
#	27113
#	59158
#	84625
#	117460
#	134900
#	156820
#	177398
#	198350
#	216970
#	249250
#	267808
#	291983
#
# Disc length: 4228 seconds
#
# Revision: 1
# Processed by: cddbd v1.5.2PL0 Copyright (c) Steve Scherf et al.
# Submitted via: CDex 1.70beta2
#
DISCID=cb10820d
DTITLE=Eddy Louiss - Sang Mêlé
DYEAR=1999
DGENRE=Jazz
TTITLE0=Le Retour De La Baleine Bleue
TTITLE1=Blues For Klook
TTITLE2=Celestin
TTITLE3=Español
TTITLE4=Romance
TTITLE5=Sang Mêlé
TTITLE6=That Lucky Old Sun
TTITLE7=Wébé
TTITLE8=Funk Set
TTITLE9=Miséréré
TTITLE10=Hamac Blues
TTITLE11=Le Petit Cheval De Belfast
TTITLE12=Djawa Dénam
EXTD=YEAR: 1999
EXTT0=
EXTT1=
EXTT2=
EXTT3=
EXTT4=
EXTT5=
EXTT6=
EXTT7=
EXTT8=
EXTT9=
EXTT10=
EXTT11=
EXTT12=
PLAYORDER=
